<?xml version="1.0" encoding="UTF-8" standalone="no"?>
<!-- Created with Inkscape (http://www.inkscape.org/) -->

<svg
   version="1.1"
   id="svg9"
   width="271"
   height="54"
   viewBox="0 0 271 54"
   sodipodi:docname="logo.svg"
   inkscape:version="1.1 (c68e22c387, 2021-05-23)"
   xmlns:inkscape="http://www.inkscape.org/namespaces/inkscape"
   xmlns:sodipodi="http://sodipodi.sourceforge.net/DTD/sodipodi-0.dtd"
   xmlns="http://www.w3.org/2000/svg"
   xmlns:svg="http://www.w3.org/2000/svg">
  <sodipodi:namedview
     id="namedview8"
     pagecolor="#ffffff"
     bordercolor="#666666"
     borderopacity="1.0"
     inkscape:pageshadow="2"
     inkscape:pageopacity="0.0"
     inkscape:pagecheckerboard="0"
     showgrid="false"
     inkscape:zoom="3.0885609"
     inkscape:cx="171.92473"
     inkscape:cy="3.5615293"
     inkscape:window-width="1920"
     inkscape:window-height="986"
     inkscape:window-x="-11"
     inkscape:window-y="-11"
     inkscape:window-maximized="1"
     inkscape:current-layer="g207" />
  <defs
     id="defs13" />
  <g
     id="g207">
    <g
       aria-label="Novo Portal"
       id="text1459"
       style="font-size:20.0772px;line-height:1.25;fill:#009ea2;stroke-width:0.501932" />
    <g
       id="g5016"
       style="fill:#009ea2;fill-opacity:1">
      <path
         d="M 75.867962,6.1106029 V 18.237232 L 66.813145,6.1106029 H 65.066428 V 21.168503 h 1.827026 V 9.0619512 l 9.03474,12.1065518 H 77.67491 V 6.1106029 Z"
         style="font-size:20.0772px;line-height:1.25;fill:#009ea2;stroke-width:0.501932;font-family:Orkney;-inkscape-font-specification:Orkney;fill-opacity:1"
         id="path4924" />
      <path
         d="m 84.882622,21.369275 c 2.911194,0 4.898837,-2.328955 4.898837,-5.220072 0,-2.911194 -1.987643,-5.220072 -4.898837,-5.220072 -2.931271,0 -4.898837,2.308878 -4.898837,5.220072 0,2.891117 1.967566,5.220072 4.898837,5.220072 z m 0,-1.586099 c -1.967565,0 -3.15212,-1.606176 -3.15212,-3.633973 0,-2.027797 1.184555,-3.654051 3.15212,-3.654051 1.927411,0 3.152121,1.626254 3.152121,3.654051 0,2.027797 -1.22471,3.633973 -3.152121,3.633973 z"
         style="font-size:20.0772px;line-height:1.25;fill:#009ea2;stroke-width:0.501932;font-family:Orkney;-inkscape-font-specification:Orkney;fill-opacity:1"
         id="path4926" />
      <path
         d="m 98.575262,11.129903 -2.971426,7.950571 -2.991503,-7.950571 h -1.887257 l 4.01544,10.0386 h 1.706562 l 4.015442,-10.0386 z"
         style="font-size:20.0772px;line-height:1.25;fill:#009ea2;stroke-width:0.501932;font-family:Orkney;-inkscape-font-specification:Orkney;fill-opacity:1"
         id="path4928" />
      <path
         d="m 106.32505,21.369275 c 2.91119,0 4.89883,-2.328955 4.89883,-5.220072 0,-2.911194 -1.98764,-5.220072 -4.89883,-5.220072 -2.93127,0 -4.89884,2.308878 -4.89884,5.220072 0,2.891117 1.96757,5.220072 4.89884,5.220072 z m 0,-1.586099 c -1.96757,0 -3.15212,-1.606176 -3.15212,-3.633973 0,-2.027797 1.18455,-3.654051 3.15212,-3.654051 1.92741,0 3.15212,1.626254 3.15212,3.654051 0,2.027797 -1.22471,3.633973 -3.15212,3.633973 z"
         style="font-size:20.0772px;line-height:1.25;fill:#009ea2;stroke-width:0.501932;font-family:Orkney;-inkscape-font-specification:Orkney;fill-opacity:1"
         id="path4930" />
      <path
         d="m 124.25394,6.1106029 h -5.52123 V 21.168503 h 1.82703 v -6.625476 h 3.6942 c 2.34904,0 4.23629,-1.847103 4.23629,-4.196135 0,-2.3289552 -1.88725,-4.2362891 -4.23629,-4.2362891 z m -0.10038,6.9065571 h -3.59382 V 7.7368561 h 3.59382 c 1.42548,0 2.65019,1.1042459 2.65019,2.6301129 0,1.586099 -1.20463,2.650191 -2.65019,2.650191 z"
         style="font-size:20.0772px;line-height:1.25;fill:#009ea2;stroke-width:0.501932;font-family:Orkney;-inkscape-font-specification:Orkney;fill-opacity:1"
         id="path4932" />
      <path
         d="m 133.71028,21.369275 c 2.91119,0 4.89884,-2.328955 4.89884,-5.220072 0,-2.911194 -1.98765,-5.220072 -4.89884,-5.220072 -2.93127,0 -4.89884,2.308878 -4.89884,5.220072 0,2.891117 1.96757,5.220072 4.89884,5.220072 z m 0,-1.586099 c -1.96757,0 -3.15212,-1.606176 -3.15212,-3.633973 0,-2.027797 1.18455,-3.654051 3.15212,-3.654051 1.92741,0 3.15212,1.626254 3.15212,3.654051 0,2.027797 -1.22471,3.633973 -3.15212,3.633973 z"
         style="font-size:20.0772px;line-height:1.25;fill:#009ea2;stroke-width:0.501932;font-family:Orkney;-inkscape-font-specification:Orkney;fill-opacity:1"
         id="path4934" />
      <path
         d="m 145.5759,10.929131 c -1.16448,0 -2.24865,0.682625 -2.97143,1.726639 l -0.0803,-1.525867 h -1.62625 v 10.0386 h 1.76679 v -5.621616 c 0,-1.786871 1.36525,-3.051735 2.83089,-3.051735 0.72278,0 1.18455,0.200772 1.4054,0.321236 l 0.86332,-1.284941 c -0.56216,-0.421621 -1.12432,-0.602316 -2.18841,-0.602316 z"
         style="font-size:20.0772px;line-height:1.25;fill:#009ea2;stroke-width:0.501932;font-family:Orkney;-inkscape-font-specification:Orkney;fill-opacity:1"
         id="path4936" />
      <path
         d="m 153.66696,19.381632 c -0.30116,0.321235 -0.64247,0.461776 -1.08417,0.461776 -0.82316,0 -1.32509,-0.50193 -1.32509,-1.485713 V 12.51523 h 2.71042 v -1.385327 h -2.7305 V 7.7167789 h -1.76679 v 3.4131241 h -1.30502 v 1.385327 h 1.30502 v 5.842465 c 0,1.786871 1.20463,3.01158 3.07181,3.01158 0.92355,0 1.62625,-0.281081 2.1081,-0.783011 z"
         style="font-size:20.0772px;line-height:1.25;fill:#009ea2;stroke-width:0.501932;font-family:Orkney;-inkscape-font-specification:Orkney;fill-opacity:1"
         id="path4938" />
      <path
         d="m 159.91095,10.929131 c -1.90734,0 -3.23243,0.702702 -3.99537,1.806948 l 1.22471,1.084169 c 0.60232,-0.903474 1.50579,-1.385327 2.69035,-1.385327 1.36525,0 2.48957,0.662547 2.48957,2.188415 v 1.184554 l -1.82702,-0.301158 c -3.51351,-0.582238 -4.87876,1.00386 -4.87876,2.790731 0,1.786871 1.28494,3.071812 3.07181,3.071812 1.30502,0 2.63011,-0.662548 3.71428,-1.626253 l 0.10039,1.425481 h 1.56602 v -6.424704 c 0,-2.589959 -1.8471,-3.814668 -4.15598,-3.814668 z m -2.48958,7.288023 c 0,-0.983782 0.72278,-1.847102 3.25251,-1.385326 l 1.64633,0.28108 v 1.144401 c -0.94363,0.863319 -2.06795,1.525867 -3.23243,1.525867 -1.00386,0 -1.66641,-0.622393 -1.66641,-1.566022 z"
         style="font-size:20.0772px;line-height:1.25;fill:#009ea2;stroke-width:0.501932;font-family:Orkney;-inkscape-font-specification:Orkney;fill-opacity:1"
         id="path4940" />
      <path
         d="m 170.1503,21.369275 c 0.90347,0 1.62625,-0.281081 2.1081,-0.783011 l -0.98378,-1.204632 c -0.30116,0.321235 -0.64247,0.461776 -1.08417,0.461776 -0.82316,0 -1.32509,-0.50193 -1.32509,-1.485713 l -0.0201,-12.2470921 h -1.7668 V 18.357695 c 0,1.786871 1.18456,3.01158 3.07182,3.01158 z"
         style="font-size:20.0772px;line-height:1.25;fill:#009ea2;stroke-width:0.501932;font-family:Orkney;-inkscape-font-specification:Orkney;fill-opacity:1"
         id="path4942" />
      <path
         style="fill:#009ea2;stroke-width:0.871174;fill-opacity:1"
         d="m 194.79481,48.97634 c -2.7509,-1.112852 -6.32574,-5.815895 -6.94997,-9.143322 -1.14435,-6.099891 2.99495,-12.64967 9.16199,-14.497357 2.27457,-0.681478 3.48073,-1.682878 4.14423,-3.440696 1.2003,-3.179964 5.90041,-6.042944 9.92746,-6.047114 2.3706,-0.0024 3.90987,-0.72458 6.25103,-2.932582 9.12385,-8.604891 24.06235,-4.0318538 26.67852,8.166938 0.65409,3.049883 1.69551,5.116316 3.15842,6.267037 6.86302,5.398455 6.15641,17.289408 -1.25516,21.122081 -2.1735,1.123967 -6.50431,1.339844 -25.95595,1.293837 -12.84094,-0.0304 -24.1632,-0.385337 -25.16057,-0.788822 z m 26.19577,-4.453723 c 6.50508,-1.259541 11.29046,-5.508792 12.23246,-10.861999 0.3331,-1.892909 1.15871,-4.323716 1.83469,-5.401794 1.19846,-1.911335 1.14199,-1.960141 -2.26833,-1.960141 -2.55392,0 -3.79094,0.47003 -4.58551,1.742348 -1.61771,2.590364 -2.91804,2.147986 -5.76165,-1.960142 -4.8004,-6.9351 -8.38217,-9.116971 -13.22158,-8.054059 -2.6718,0.586825 -3.61148,2.173635 -1.28719,2.173635 0.86535,0 1.30676,0.865462 1.30676,2.562108 0,1.409159 0.43204,2.829116 0.96006,3.155459 0.52804,0.326344 1.51396,1.819586 2.19094,3.318317 1.49501,3.309743 3.145,6.033817 4.06817,6.716429 0.37696,0.278722 -1.09315,2.285289 -3.2669,4.459035 -2.17375,2.173747 -3.95227,4.75637 -3.95227,5.739162 0,1.697868 0.16277,1.726979 3.26691,0.584292 1.79679,-0.661432 5.61434,-1.657124 8.48344,-2.21265 z M 68.37383,51.02271 c -0.742625,-0.7923 -0.54731,-3.087271 1.040113,-3.087271 0.532927,0 1.695138,0.657185 2.582693,1.460411 2.669704,2.416049 3.750502,0.246215 3.750502,-7.52959 0,-7.365423 -0.509599,-8.744532 -2.59247,-7.015903 -0.730297,0.606093 -1.32181,0.759964 -1.314473,0.341936 0.02236,-1.274049 1.196487,-2.626129 3.193063,-3.677014 2.894196,-1.523344 4.634163,0.740073 4.634163,6.028299 0,5.273888 1.330174,5.56883 2.666075,0.591154 1.716857,-6.397148 2.542393,-7.989818 3.595529,-6.936682 1.386925,1.386925 -4.307907,12.912534 -8.619703,17.445173 -3.667288,3.85512 -6.827619,4.628359 -8.935492,2.379487 z M 20.13061,43.166822 c 2.253701,-1.578553 6.467433,-17.13185 4.792642,-17.690114 -2.920412,-0.97347 -0.151676,-1.467774 6.827599,-1.218934 l 7.842566,0.27962 -0.0032,3.205076 -0.0032,3.205076 -1.726287,-2.831315 c -1.193213,-1.95701 -2.386906,-2.831316 -3.865612,-2.831316 -2.525476,0 -2.765282,0.307949 -3.566779,4.580298 -0.520718,2.775661 -0.380805,3.260268 0.941281,3.260268 0.854101,0 2.235175,-0.61744 3.069052,-1.372089 1.423356,-1.288119 1.472202,-1.177266 0.798156,1.811365 -0.779115,3.454497 -1.741516,5.028494 -1.741516,2.848234 0,-1.234902 -1.688063,-2.416336 -3.452525,-2.416336 -0.568532,0 -2.645693,6.458586 -2.645693,8.226339 0,0.266971 1.5397,0.485401 3.421555,0.485401 2.812973,0 3.826025,-0.503598 5.695552,-2.831315 l 2.273996,-2.831316 -0.54127,2.613522 c -0.297699,1.437437 -0.692238,3.103557 -0.876753,3.70249 -0.241181,0.782868 -2.968892,1.088967 -9.703993,1.088967 -8.501893,0 -9.198948,-0.118767 -7.535457,-1.283921 z m 21.785938,0.703138 c -1.69028,-1.690279 -0.420182,-5.883019 2.739195,-9.042395 3.060596,-3.060596 3.70366,-3.319979 8.230932,-3.319979 4.843621,0 4.899894,0.02909 4.104315,2.121622 -0.443651,1.166891 -1.403373,3.275577 -2.132714,4.685967 -1.754026,3.391912 -1.683236,3.737913 0.634066,3.099118 l 1.960142,-0.54034 -2.056654,1.788395 c -2.52322,2.194104 -6.219499,2.400098 -6.219499,0.346613 0,-1.341594 -0.110707,-1.341594 -1.593152,0 -1.617535,1.46385 -4.609219,1.918412 -5.666631,0.860999 z m 9.927268,-8.261237 c 0.578454,-1.39651 0.805356,-2.785488 0.504227,-3.086618 -1.377099,-1.377098 -8.145843,7.609955 -7.057666,9.370662 0.785031,1.270207 5.16339,-2.928169 6.553439,-6.284044 z m 7.496212,8.261237 c 0.483064,-0.966128 -0.750671,-3.775087 0.01645,-3.775087 0.328478,0 1.503017,0.85094 2.610087,1.890979 2.813292,2.64295 3.458004,1.410208 1.185503,-2.266777 -2.396805,-3.878111 -2.040863,-6.679775 1.035371,-8.149547 2.69517,-1.287708 5.897069,-0.18973 5.897069,2.022191 0,1.673892 -2.283639,1.64999 -2.928561,-0.03065 -0.442379,-1.152821 -3.169657,-1.935696 -3.169657,-0.909862 0,0.218294 0.980071,1.841113 2.177935,3.606265 2.537757,3.739594 2.681449,4.951782 0.808947,6.824283 -1.362308,1.362309 -8.333458,2.188836 -7.633143,0.788206 z m 28.728307,-0.891793 c 1.287533,-1.087155 2.401605,-3.949028 3.588987,-9.219536 1.576533,-6.997847 1.602773,-7.712596 0.310826,-8.467455 -0.961297,-0.561668 1.170078,-0.832896 6.68691,-0.850943 7.454392,-0.02438 8.267892,0.143445 10.236282,2.111844 4.1016,4.101593 2.28889,11.692404 -3.67194,15.376393 -2.60798,1.611822 -4.77602,2.062633 -11.12858,2.31402 -7.703062,0.30483 -7.84545,0.274937 -6.022485,-1.264323 z m 14.039715,-2.229913 c 5.43571,-5.802697 4.76033,-15.463339 -1.08105,-15.463339 -1.852696,0 -2.2029,0.717688 -3.858052,7.906366 -1.001223,4.348501 -1.820396,8.268784 -1.820396,8.71174 0,1.623487 4.948948,0.778029 6.759498,-1.154767 z m 11.54308,2.405278 c -2.44246,-2.942977 1.46205,-10.343077 6.37119,-12.075155 1.97962,-0.698461 4.94614,0.808955 4.94614,2.513342 0,2.011235 -3.27041,4.760806 -5.66263,4.760806 -1.60837,0 -2.17793,0.462803 -2.17793,1.76969 0,2.298567 2.34937,3.164897 4.68907,1.72909 1.82984,-1.122924 1.83133,-1.116997 0.18515,0.733685 -1.95255,2.195128 -6.73105,2.520452 -8.35099,0.568542 z m 6.78723,-6.71759 c 1.25005,-1.250043 1.39368,-4.181635 0.20488,-4.181635 -0.91626,0 -2.64417,2.809049 -2.64417,4.298598 0,1.232648 1.14456,1.177767 2.43929,-0.116963 z m 6.27245,6.81757 c 0,-0.658478 0.58804,-2.863922 1.30676,-4.900987 0.71872,-2.037065 1.30676,-4.094497 1.30676,-4.57207 0,-0.480882 -0.58306,-0.384415 -1.30676,0.2162 -0.87307,0.724584 -1.30676,0.766651 -1.30676,0.126754 0,-1.498489 3.95208,-3.711716 5.53988,-3.10242 0.78623,0.301706 1.42951,1.081434 1.42951,1.73273 0,0.876417 0.80889,0.70692 3.1124,-0.652184 2.84067,-1.676033 3.23295,-1.715814 4.49311,-0.455649 1.26016,1.260165 1.25464,1.710824 -0.0632,5.161768 -1.80984,4.739022 -1.80565,5.354757 0.0317,4.649695 1.29343,-0.496335 1.27676,-0.346434 -0.13501,1.213556 -1.6614,1.835776 -6.56778,2.493684 -6.56778,0.880683 0,-0.494535 0.58804,-2.306539 1.30676,-4.026674 3.34937,-8.016155 0.37321,-7.828891 -3.56692,0.224437 -1.56973,3.208408 -2.82102,4.701392 -3.94029,4.701392 -0.90207,0 -1.64012,-0.538754 -1.64012,-1.197231 z m 18.29466,-0.871174 c 0,-1.137623 0.57065,-3.685807 1.26811,-5.662631 1.11004,-3.146187 1.11004,-3.594226 0,-3.594226 -0.69746,0 -1.26811,-0.392028 -1.26811,-0.871174 0,-0.479146 0.75764,-0.871174 1.68364,-0.871174 0.926,0 1.93249,-0.784057 2.23664,-1.742348 0.34536,-1.088122 1.31811,-1.742348 2.59067,-1.742348 1.60876,0 1.94176,0.366743 1.58203,1.742348 -0.31687,1.211733 -0.0267,1.742348 0.95274,1.742348 2.10259,0 1.70088,1.578124 -0.48354,1.899551 -1.35633,0.199577 -2.24518,1.341924 -3.13986,4.035322 -1.36146,4.098674 -0.97933,5.383255 1.09042,3.665513 0.83126,-0.689881 1.32782,-0.75478 1.32782,-0.173542 0,1.398681 -3.60658,3.640766 -5.85647,3.640766 -1.50757,0 -1.98409,-0.496776 -1.98409,-2.068405 z m 11.03487,1.487622 c -1.69029,-1.690279 -0.42019,-5.883019 2.73919,-9.042395 3.06167,-3.061669 3.7026,-3.319979 8.23765,-3.319979 h 4.91767 l -2.13943,4.837631 c -2.59977,5.878539 -2.59469,5.734914 -0.17929,5.069076 l 1.96014,-0.54034 -2.05665,1.788395 c -2.52322,2.194109 -6.2195,2.400098 -6.2195,0.346613 0,-1.341594 -0.11071,-1.341594 -1.59315,0 -1.61754,1.46385 -4.60922,1.918412 -5.66663,0.860999 z m 9.09148,-6.968784 c 2.31581,-3.747052 1.33475,-5.466011 -1.57079,-2.752244 -2.71653,2.537234 -4.86574,6.580676 -4.13031,7.770624 0.70625,1.142721 3.30965,-1.148919 5.7011,-5.01838 z m 8.63351,5.589426 c 0.006,-1.078078 0.99604,-5.044326 2.19983,-8.813886 1.56832,-4.911037 1.92914,-7.166506 1.27297,-7.957151 -0.70092,-0.844558 -0.17425,-1.242515 2.24505,-1.696379 1.73844,-0.326134 3.35734,-0.396438 3.59755,-0.156232 0.2402,0.240206 -0.77993,4.088731 -2.26696,8.552277 -3.1395,9.423681 -3.18938,9.790777 -1.22798,9.038118 1.29343,-0.496335 1.27675,-0.346434 -0.13502,1.213556 -2.25886,2.496005 -5.7,2.386875 -5.68544,-0.180303 z"
         id="path209"
         sodipodi:nodetypes="sssssssssssssssssssssssssssassssssssssacsscccssssssssssscsssccsssssscsssssssssssssssssssssssssssssssssssssssssssssssssssssscscssssssssssssssssssssssscsscsssssssssssssssss" />
    </g>
  </g>
</svg>
